<svg width="512" height="512" viewBox="0 0 512 512" fill="none" xmlns="http://www.w3.org/2000/svg">
<rect width="512" height="512" fill="white"/>
<path d="M336 60C385.706 60 426 100.294 426 150V336C426 357.353 417.633 376.752 404 391.099V436C404 447.046 395.046 456 384 456H360C348.954 456 340 447.046 340 436V416H172V436C172 447.046 163.046 456 152 456H128C116.954 456 108 447.046 108 436V391.099C94.3668 376.752 86 357.353 86 336V150C86 100.294 126.294 60 176 60H336ZM161 309C143.327 309 129 323.327 129 341C129 358.673 143.327 373 161 373C178.673 373 193 358.673 193 341C193 323.327 178.673 309 161 309ZM351 309C333.327 309 319 323.327 319 341C319 358.673 333.327 373 351 373C368.673 373 383 358.673 383 341C383 323.327 368.673 309 351 309ZM139 140C133.477 140 129 144.477 129 150V234C129 239.523 133.477 244 139 244H373C378.523 244 383 239.523 383 234V150C383 144.477 378.523 140 373 140H139Z" fill="#960B7E"/>
</svg>
